<?xml version="1.0" encoding="UTF-8" standalone="no"?> <svg xmlns="http://www.w3.org/2000/svg" viewBox="0 0 512 512"><g id="outline"><path d="M398.45,418.05a23.81,23.81,0,0,0-21-3.92l-27.22,7.78A28,28,0,0,0,324,384H256a8,8,0,0,0-5.66,2.34L220.69,416H112a8,8,0,0,0-8,8v80a8,8,0,0,0,8,8H336a7.94,7.94,0,0,0,2.81-.51l53.62-20.11A24.11,24.11,0,0,0,408,468.91v-31.7A23.8,23.8,0,0,0,398.45,418.05ZM168,496H120V432h48Zm32-64v64H184V432Zm192,36.91a8,8,0,0,1-5.19,7.49L334.55,496H216V432h8a8,8,0,0,0,5.66-2.34L259.31,400H324a12,12,0,0,1,0,24H296a8,8,0,0,0-8,8,8,8,0,0,1-8,8,8,8,0,0,0,0,16,24,24,0,0,0,22.62-16H344a7.85,7.85,0,0,0,2.2-.31l35.6-10.17a8,8,0,0,1,10.2,7.69Z"/><path d="M504,128H435.31L405.66,98.34A8,8,0,0,0,400,96H351.93c0-.43,0-.85,0-1.28a94.49,94.49,0,0,0-28.12-66.94,96.82,96.82,0,0,0-135.64,0,93.94,93.94,0,0,0-23.09,36.77,8,8,0,0,0-2.75,1.79L108.69,120H8a8,8,0,0,0-8,8v96a8,8,0,0,0,2.34,5.66l64,64A8,8,0,0,0,72,296h44.69l29.65,29.66A8,8,0,0,0,152,328h44.69l37.65,37.66A8,8,0,0,0,240,368h72a8,8,0,0,0,5.66-2.34L371.31,312H432a8,8,0,0,0,5.66-2.34l72-72A8,8,0,0,0,512,232V136A8,8,0,0,0,504,128ZM199.34,39.1a80.9,80.9,0,0,1,113.31,0A77.41,77.41,0,0,1,330,64.7a76.47,76.47,0,0,1,6.1,30c0,3-.08,6-.23,8.87A170.36,170.36,0,0,1,285,216.26l-29,28.58-29-28.58A170.8,170.8,0,0,1,175.94,94.72a75.5,75.5,0,0,1,2.85-20.64A77.7,77.7,0,0,1,199.34,39.1ZM16,136h96a8,8,0,0,0,5.66-2.34l42.47-42.48c0,1.18-.07,2.36-.07,3.54a186.68,186.68,0,0,0,55.8,132.86l34.56,34.08a8,8,0,0,0,11.16,0l34.55-34.08a186.23,186.23,0,0,0,55-115.58h45.56l29.65,29.66A8,8,0,0,0,432,144h64v36.69L428.69,248H368a8,8,0,0,0-5.66,2.34L308.69,304H243.31l-37.65-37.66A8,8,0,0,0,200,264H155.31l-29.65-29.66A8,8,0,0,0,120,232H75.31L16,172.69ZM80,248h32v32H80Zm48,11.31,16,16v25.38l-16-16ZM160,280h32v32H160Zm48,11.31,24,24v25.38l-24-24ZM248,320h56v32H248Zm72-4.69,40-40v25.38l-40,40ZM376,264h48v32H376ZM16,195.31l48,48v25.38l-48-48Zm424,89.38V259.31l56-56v25.38Z"/><path d="M256,151.94A55.94,55.94,0,1,0,200.06,96,56,56,0,0,0,256,151.94Zm0-96A40.06,40.06,0,1,1,215.94,96,40.1,40.1,0,0,1,256,55.94Z"/></g></svg>