<?xml version="1.0" standalone="no"?>
<!DOCTYPE svg PUBLIC "-//W3C//DTD SVG 20010904//EN"
 "http://www.w3.org/TR/2001/REC-SVG-20010904/DTD/svg10.dtd">
<svg version="1.0" xmlns="http://www.w3.org/2000/svg"
 width="192.000000pt" height="192.000000pt" viewBox="0 0 192.000000 192.000000"
 preserveAspectRatio="xMidYMid meet">

<g transform="translate(0.000000,192.000000) scale(0.100000,-0.100000)"
fill="#000000" stroke="none">
<path d="M812 1700 c-172 -62 -309 -216 -356 -396 -46 -177 9 -437 141 -670
55 -97 314 -510 334 -533 11 -12 17 -9 39 18 77 91 338 577 388 721 54 155 67
230 66 400 0 176 -14 232 -79 308 -74 86 -229 126 -344 87 -95 -31 -198 -147
-242 -271 -29 -83 -23 -205 15 -289 50 -112 138 -178 236 -179 70 -1 110 26
147 97 24 45 27 64 28 143 0 82 -2 94 -28 132 -32 49 -91 82 -147 82 -33 0
-40 -3 -40 -20 0 -16 7 -20 30 -20 110 0 175 -119 136 -253 -23 -78 -63 -117
-122 -117 -131 0 -230 133 -228 306 1 106 38 190 121 273 86 86 170 109 280
76 158 -47 221 -194 193 -452 -23 -216 -61 -320 -248 -668 -52 -98 -152 -269
-174 -298 -13 -17 -27 1 -155 205 -265 420 -314 543 -314 782 0 133 18 193 87
298 67 100 146 160 269 203 36 13 60 27 60 35 0 22 -33 22 -93 0z"/>
<path d="M1497 963 c-16 -15 -4 -31 61 -80 80 -62 253 -235 317 -317 l45 -58
0 37 c0 31 -9 49 -47 94 -74 86 -190 200 -275 269 -76 61 -88 68 -101 55z"/>
</g>
</svg>
